# xmcd CD database file
#
# Track frame offsets:
#	150
#	19335
#	37275
#	57590
#	75347
#	94140
#	110732
#	132805
#	152432
#	168192
#
# Disc length: 2425 seconds
#
# Revision: 13
# Processed by: cddbd v1.5.2PL0 Copyright (c) Steve Scherf et al.
# Submitted via: CDex 1.73
#
DISCID=7c09770a
DTITLE=Janis Joplin - Super Hits
DYEAR=2007
DGENRE=Blues
TTITLE0=Piece of My Heart
TTITLE1=Cry Baby
TTITLE2=Me and Bobby McGee
TTITLE3=Try (Just a Little Bit Harder)
TTITLE4=One Good Man
TTITLE5=Move Over
TTITLE6=I Need a Man to Love
TTITLE7=Turtle Blues
TTITLE8=A Woman Left Lonely
TTITLE9=One Night Stand
EXTD=YEAR: 2007
EXTT0=
EXTT1=
EXTT2=
EXTT3=
EXTT4=
EXTT5=
EXTT6=
EXTT7=
EXTT8=
EXTT9=
PLAYORDER=
